<?xml version="1.0" standalone="no"?>
<!DOCTYPE svg PUBLIC "-//W3C//DTD SVG 20010904//EN"
 "http://www.w3.org/TR/2001/REC-SVG-20010904/DTD/svg10.dtd">
<svg version="1.0" xmlns="http://www.w3.org/2000/svg"
 width="737.000000pt" height="571.000000pt" viewBox="0 0 737.000000 571.000000"
 preserveAspectRatio="xMidYMid meet">
<metadata>
Created by potrace 1.16, written by Peter Selinger 2001-2019
</metadata>
<g transform="translate(0.000000,571.000000) scale(0.100000,-0.100000)"
fill="#000000" stroke="none">
<path d="M856 5472 c5 -4 43 -35 84 -68 227 -181 457 -433 633 -694 78 -115
212 -370 244 -465 12 -33 24 -68 28 -77 5 -14 -3 -17 -52 -23 -341 -36 -603
-144 -843 -350 -251 -214 -428 -534 -481 -870 -19 -116 -16 -360 5 -470 55
-284 179 -529 372 -734 199 -212 469 -362 764 -426 101 -22 353 -31 460 -16
819 110 1380 866 1240 1673 -43 250 -151 482 -318 685 -26 32 -72 101 -101
153 -84 150 -270 423 -388 570 -123 154 -345 386 -478 499 -334 286 -699 489
-1061 591 -117 33 -123 34 -108 22z m1144 -1652 c511 -54 913 -432 996 -936
22 -135 14 -314 -20 -446 -135 -528 -614 -877 -1157 -844 -391 24 -754 265
-932 621 -36 72 -83 218 -98 305 -28 166 -10 386 46 550 130 383 483 681 875
739 154 23 170 23 290 11z"/>
<path d="M1962 3163 c10 -60 21 -180 23 -268 8 -244 -16 -290 -167 -315 -82
-14 -232 -8 -386 16 -53 9 -114 18 -134 21 l-36 5 4 -43 c15 -127 80 -269 171
-370 55 -62 173 -135 267 -166 66 -21 100 -26 181 -26 175 -1 313 54 438 172
140 133 205 296 194 486 -7 115 -21 167 -74 267 -88 168 -262 289 -464 322
l-35 6 18 -107z"/>
<path d="M3143 3940 c3 -8 109 -260 236 -559 127 -299 231 -547 231 -552 0
-26 39 -10 198 87 97 59 260 157 361 218 l184 111 -280 3 -280 2 -165 178
c-90 97 -226 245 -302 327 -166 180 -190 205 -183 185z"/>
<path d="M5615 3364 c-402 -44 -759 -133 -1140 -281 -181 -71 -270 -117 -377
-199 -209 -156 -355 -396 -410 -669 -28 -142 -21 -348 16 -490 31 -120 115
-293 186 -387 313 -412 862 -556 1338 -350 256 111 480 341 582 598 54 135 73
227 78 384 8 261 -53 470 -201 683 -34 48 -38 60 -26 68 94 62 286 149 454
206 305 104 723 163 1060 148 162 -7 163 -8 -25 75 -209 93 -454 163 -702 201
-178 28 -639 35 -833 13z m-673 -508 c271 -52 507 -238 624 -491 116 -251 100
-558 -42 -800 -63 -107 -202 -244 -307 -304 -348 -196 -760 -145 -1037 129
-179 176 -259 367 -260 613 0 126 20 233 62 335 156 375 562 594 960 518z"/>
<path d="M4655 2402 c-157 -54 -259 -174 -284 -333 -44 -274 202 -518 475
-472 175 30 311 164 343 338 6 32 9 60 6 63 -2 2 -48 -1 -102 -8 -55 -7 -127
-11 -162 -8 -77 5 -106 31 -117 105 -6 42 6 201 23 301 l5 32 -68 0 c-39 -1
-91 -8 -119 -18z"/>
<path d="M3324 1512 c-419 -301 -629 -455 -629 -461 0 -9 838 -969 846 -970
12 -2 98 206 128 309 37 124 61 280 61 396 0 275 -106 576 -273 777 l-23 27
-110 -78z"/>
</g>
</svg>
